<svg xmlns="http://www.w3.org/2000/svg" width="12.331" height="12.344" viewBox="0 0 12.331 12.344">
  <g id="Group_1029" data-name="Group 1029" transform="translate(-98.603 32.441)">
    <path id="Path_1020" data-name="Path 1020" d="M110.725-26.052a5.251,5.251,0,0,0,.181,2.19,3.4,3.4,0,0,1-4.726,3.489,1.11,1.11,0,0,0-.546-.084,5.839,5.839,0,0,1-6.605-4.866,11.567,11.567,0,0,1-.012-1.8,1.106,1.106,0,0,0-.068-.455,3.356,3.356,0,0,1,.64-3.868,3.47,3.47,0,0,1,3.984-.632.97.97,0,0,0,.533.094A5.924,5.924,0,0,1,110.725-26.052Zm-5.945,3.905a5.029,5.029,0,0,0,2.583-.792,2.125,2.125,0,0,0-.312-3.67,11.6,11.6,0,0,0-1.478-.5c-.6-.185-1.216-.335-1.815-.532a.607.607,0,0,1-.456-.58.69.69,0,0,1,.443-.6,1.842,1.842,0,0,1,2.479.673c.041.069.08.139.125.206a.858.858,0,0,0,1.083.323.825.825,0,0,0,.442-1.009,1.92,1.92,0,0,0-1.182-1.286,4.754,4.754,0,0,0-3.891.019,1.915,1.915,0,0,0-1.256,1.824,1.866,1.866,0,0,0,1.228,1.8,12.352,12.352,0,0,0,1.483.484,14.973,14.973,0,0,1,1.639.483.768.768,0,0,1,.082,1.423,2.353,2.353,0,0,1-.84.3,1.681,1.681,0,0,1-2.018-1.025c-.054-.108-.106-.217-.169-.319a.851.851,0,0,0-1.045-.369.725.725,0,0,0-.51.849,2.14,2.14,0,0,0,.233.736,2.365,2.365,0,0,0,1.4,1.168C103.6-22.36,104.2-22.273,104.78-22.147Z" transform="translate(0 0)" fill="#6176fe"/>
  </g>
</svg>
