<svg xmlns="http://www.w3.org/2000/svg" width="24.123" height="24.122" viewBox="0 0 24.123 24.122">
  <g id="Icon" transform="translate(-24.948 -124.926)">
    <path id="Path_1022" data-name="Path 1022" d="M29.142,143.747c-.357-.016-.638-.02-.918-.043a3.509,3.509,0,0,1-3.27-3.544q-.013-2.778,0-5.556a3.515,3.515,0,0,1,3.424-3.59c.232-.012.465,0,.765,0,0-.739-.015-1.425.005-2.109a6.3,6.3,0,0,1,.132-1.351,3.455,3.455,0,0,1,3.339-2.616q4.379-.02,8.758,0a3.476,3.476,0,0,1,3.469,3.24c.055.75.023,1.506.029,2.259,0,.169,0,.338,0,.541.36.02.67.028.977.055a3.5,3.5,0,0,1,3.209,3.457c.017,1.883.01,3.767,0,5.65a3.513,3.513,0,0,1-3.39,3.575c-.245.015-.492,0-.8,0,0,.361,0,.654,0,.948-.005.816.026,1.634-.028,2.447a2.041,2.041,0,0,1-2.059,1.928q-5.768.019-11.536,0a2.076,2.076,0,0,1-2.1-2.1c-.032-.878-.009-1.758-.01-2.636C29.142,144.138,29.142,143.968,29.142,143.747Zm15.764-1.48A2.192,2.192,0,0,0,47.65,139.9q0-2.566,0-5.132a3.165,3.165,0,0,0-.049-.654,2.133,2.133,0,0,0-2.328-1.69q-8.17,0-16.339,0c-.173,0-.346,0-.518.008a2.093,2.093,0,0,0-2.044,2.151q-.015,2.778,0,5.556a2.139,2.139,0,0,0,2.74,2.094v-2.244c-.17-.016-.31-.023-.448-.044a.669.669,0,0,1-.636-.692.679.679,0,0,1,.674-.7,3.479,3.479,0,0,1,.376-.009H44.944a2.941,2.941,0,0,1,.423.015.7.7,0,0,1,.032,1.38c-.152.027-.308.036-.492.056ZM43.458,140H30.564c0,2.335-.007,4.625.006,6.915a.675.675,0,0,0,.765.709q5.672.008,11.344,0c.524,0,.771-.276.775-.849.009-1.3,0-2.6,0-3.907C43.458,141.93,43.458,140.99,43.458,140Zm-12.839-9.04H43.431c0-.949.047-1.86-.012-2.763a2,2,0,0,0-1.983-1.844q-4.421-.031-8.843,0a1.953,1.953,0,0,0-1.949,1.6A28.445,28.445,0,0,0,30.619,130.963Z" fill="#fff"/>
    <path id="Path_1023" data-name="Path 1023" d="M59.406,222.84c-.36,0-.721.014-1.08,0a.693.693,0,0,1-.732-.694.679.679,0,0,1,.717-.706c.735-.02,1.471-.019,2.206,0a.685.685,0,0,1,.732.692.7.7,0,0,1-.717.712c-.031,0-.063,0-.094,0H59.406Z" transform="translate(-29.571 -87.407)" fill="#fff"/>
    <path id="Path_1024" data-name="Path 1024" d="M128.164,302.866c-.58,0-1.159.008-1.738,0-.525-.009-.825-.267-.833-.691-.009-.443.3-.716.852-.719q1.738-.012,3.477,0c.525,0,.825.266.833.691.009.443-.3.712-.852.72C129.323,302.873,128.743,302.866,128.164,302.866Z" transform="translate(-91.165 -159.896)" fill="#fff"/>
    <path id="Path_1025" data-name="Path 1025" d="M128.164,334.867c-.579,0-1.159.008-1.738,0-.525-.009-.825-.267-.834-.691-.009-.443.3-.716.852-.72q1.738-.012,3.477,0c.525,0,.825.266.834.69.009.443-.3.712-.852.72C129.323,334.874,128.744,334.867,128.164,334.867Z" transform="translate(-91.165 -188.883)" fill="#fff"/>
  </g>
</svg>
