<svg xmlns="http://www.w3.org/2000/svg" width="10.757" height="14.39" viewBox="0 0 10.757 14.39">
  <path id="Path_1021" data-name="Path 1021" d="M-348.264,473.154a5.264,5.264,0,0,1,5.147,6.731,14.587,14.587,0,0,1-2.221,4.257c-.77,1.062-1.616,2.073-2.443,3.1-.334.413-.615.4-.968,0a26.151,26.151,0,0,1-4.067-5.839,7.8,7.8,0,0,1-.8-2.588,5.171,5.171,0,0,1,3.35-5.249,6.189,6.189,0,0,1,.942-.271C-348.977,473.221-348.619,473.2-348.264,473.154Zm0,7.83a2.662,2.662,0,0,0,2.714-2.618,2.678,2.678,0,0,0-2.7-2.605,2.677,2.677,0,0,0-2.713,2.625A2.662,2.662,0,0,0-348.268,480.984Z" transform="translate(353.642 -473.154)" fill="#6176fe"/>
</svg>
